{"title":"Barbie A Fairy Secret(2011)DVDRip[Hindi-Eng]DD5.1-DGrea8","uid":8922646,"size":784906703,"categoryP":"video","categoryS":"movies_dvdr","magnet":"?xt=urn:btih:2c6cf1e1f50bf511eef908f2289483c30cff58b9&amp;dn=Barbie+A+Fairy+Secret%282011%29DVDRip%5BHindi-Eng%5DDD5.1-DGrea8&amp;tr=udp%3A%2F%2Ftracker.openbittorrent.com%3A80&amp;tr=udp%3A%2F%2Fopen.demonii.com%3A1337&amp;tr=udp%3A%2F%2Ftracker.coppersurfer.tk%3A6969&amp;tr=udp%3A%2F%2Fexodus.desync.com%3A6969","seeders":2,"leechers":3,"uploader":"DGrea8","files":13,"time":1379289841,"description":"            Barbie A Fairy Secret(2011)DVDRip[Hindi-Eng]DD5.1-DGrea8\n\n.:Cast Info:. \n\nDiana Kaarina\t ...\tBarbie (voice)\nAdrian Petriw\t ...\tKen (voice)\nBritt Irvin\t ...\tRaquelle (voice)\nCassandra Morris\t ...\tCarrie (voice)\nKate Higgins\t ...\tTaylor (voice)\nSilvio Pollio\t ...\tZane (voice)\nBrittney Wilson\t ...\tCrystal (voice)\nAlexandra Carter\t ...\tPrincess Graciella (voice)\nNicole Oliver\t ...\tLilliana Roxelle / Fitting Room Attendant (voice)\nBarbara Tyson\t ...\tTracy Clinger (voice) (as Barb Tyson)\nCandus Churchill\t ...\tReena (voice)\nNathaniel DeVeaux\t ...\tGraylen (voice) (as Nathaniel Deveaux)\nMichael Dobson\t ...\tWedding Officiant (voice)\n\n\n\n.:General Info:. \n\nDirector:William Lau, Terry Klassen\nWriters:Elise Allen\nStars:Diana Kaarina, Adrian Petriw, Britt Irvin\nRelease Date:15 March 2011 (USA)\nGenres: Animation | Family | Fantasy\n\n\n.:Video Info:. \n\nVideo\nID : 1\nFormat : AVC\nFormat/Info : Advanced Video Codec\nDuration : 1h 12mn\nOverall bit rate : 1 404 Kbps\nWidth : 720 pixels\nHeight : 416 pixels\nDisplay aspect ratio : 16:9\nFrame rate mode : Variable\nFrame rate : 50.000 fps\nColor space : YUV\nChroma subsampling : 4:2:0\nBit depth : 8 bits\nScan type : Progressive\n\nAudio #1\nID : 2\nFormat : AC-3\nFormat/Info : Audio Coding 3\nMode extension : CM (complete main)\nMuxing mode : Header stripping\nCodec ID : A_AC3\nDuration : 1h 12mn\nBit rate mode : Constant\nBit rate : 224 Kbps\nChannel(s) : 6 channels\nChannel positions : Front: L C R, Side: L R, LFE\nSampling rate : 48.0 KHz\nBit depth : 16 bits\nCompression mode : Lossy\nStream size : 116 MiB (16%)\nLanguage : English\n\nAudio #2\nID : 3\nFormat : AC-3\nFormat/Info : Audio Coding 3\nMode extension : CM (complete main)\nMuxing mode : Header stripping\nCodec ID : A_AC3\nDuration : 1h 12mn\nBit rate mode : Constant\nBit rate : 448 Kbps\nChannel(s) : 6 channels\nChannel positions : Front: L C R, Side: L R, LFE\nSampling rate : 48.0 KHz\nBit depth : 16 bits\nCompression mode : Lossy\nStream size : 232 MiB (32%)\nLanguage : Hindi\n\n\n\nScreen Shoots:-\n &lt;a href=&quot;\nhttp://img546.imageshack.us/img546/9159/03v7.jpg&quot; rel=&quot;nofollow&quot; target=&quot;_NEW&quot;&gt;\nhttp://img546.imageshack.us/img546/9159/03v7.jpg&lt;/a&gt;\n &lt;a href=&quot;\nhttp://img33.imageshack.us/img33/1197/ob41.jpg&quot; rel=&quot;nofollow&quot; target=&quot;_NEW&quot;&gt;\nhttp://img33.imageshack.us/img33/1197/ob41.jpg&lt;/a&gt;\n &lt;a href=&quot;\nhttp://img11.imageshack.us/img11/8466/8oof.jpg&quot; rel=&quot;nofollow&quot; target=&quot;_NEW&quot;&gt;\nhttp://img11.imageshack.us/img11/8466/8oof.jpg&lt;/a&gt;\n\n\nNote:-- Check The Torrent\n\n\nCheck The Sample Video In This Torrent","torrent":{"xt":"urn:btih:2c6cf1e1f50bf511eef908f2289483c30cff58b9","amp;dn":"Barbie+A+Fairy+Secret%282011%29DVDRip%5BHindi-Eng%5DDD5.1-DGrea8","amp;tr":["udp%3A%2F%2Ftracker.openbittorrent.com%3A80","udp%3A%2F%2Fopen.demonii.com%3A1337","udp%3A%2F%2Ftracker.coppersurfer.tk%3A6969","udp%3A%2F%2Fexodus.desync.com%3A6969"],"infoHash":"2c6cf1e1f50bf511eef908f2289483c30cff58b9","infoHashBuffer":{"type":"Buffer","data":[44,108,241,225,245,11,245,17,238,249,8,242,40,148,131,195,12,255,88,185]},"announce":[],"urlList":[]}}